<svg xmlns="http://www.w3.org/2000/svg" viewBox="0 0 1368.48 772.65"><defs><style>.cls-1{fill:#1b2b43;}.cls-2{fill:#6951ea;}.cls-3{fill:#b3a3fb;}.cls-4{fill:#dbd6fc;}.cls-5{fill:#f8f1f4;}.cls-6{fill:#4e7a0e;}.cls-7{fill:#94c43a;}.cls-8{fill:#5b4550;}</style></defs><g id="Capa_2" data-name="Capa 2"><g id="Capa_6" data-name="Capa 6"><path class="cls-1" d="M1.73,555.41s120.69,49.38,265.79,48.48,194.24-36.84,314-30.5,239.55,49,387,45.11,400-38.85,400-38.85V772.46H1.73Z"/><path class="cls-2" d="M227.77,119.2a58.41,58.41,0,0,1-16.81,41h0a61.76,61.76,0,0,1-25.6,15.71h0a62.39,62.39,0,0,1-14.69,2.77s0,0,0,0c-1.44.1-2.88.15-4.35.15a64.45,64.45,0,0,1-6.84-.36q-1.19-.13-2.37-.3a64.43,64.43,0,0,1-47.75,39.08c-.91.18-1.82.33-2.73.46a64.26,64.26,0,0,1-17.08.18l-.75-.1a64.33,64.33,0,0,1-46.43-30.56A61.67,61.67,0,0,1,4.11,208.27c-1.29.19-2.6.34-3.92.45H0V121.82H.19V49.53a40.14,40.14,0,0,1,13.89-2.46,40.55,40.55,0,0,1,9.23,1.06,39.41,39.41,0,0,1,10.34,4c.22-1.69.5-3.35.87-5C40.4,20.21,65.08,0,94.61,0a63.77,63.77,0,0,1,9.23.67C133.4,5,156.08,29.73,156.08,59.6a6.12,6.12,0,0,1,0,.85,61.64,61.64,0,0,1,10.25-.85,63.33,63.33,0,0,1,8.2.53c.36,0,.71.09,1.07.15a62.23,62.23,0,0,1,27.57,11.21,61.08,61.08,0,0,1,13.39,13.32c.48.67.95,1.35,1.41,2A58,58,0,0,1,227.77,119.2Z"/><path class="cls-2" d="M319.54,368.09a65.69,65.69,0,0,0-114.62-27.5,65.7,65.7,0,0,0-52,117,65.53,65.53,0,0,0,51.75,33.17,65.69,65.69,0,0,0,84.06,4.9,65.7,65.7,0,1,0,30.78-127.52Zm-76.4,79c.14-.19.29-.37.48-.59a3.94,3.94,0,0,0,.14.7A1.75,1.75,0,0,1,243.14,447.11Z"/><path class="cls-2" d="M315.6,271.22a34.63,34.63,0,0,1-57.38,26.13c-4.2,13.75-18.5,23.88-35.46,23.88-20.27,0-36.7-14.44-36.7-32.32a29,29,0,0,1,1.54-9.25c-1.51.11-3,.19-4.6.19-23.26,0-42.09-14.34-42.09-32s18.83-32,42.09-32a52.5,52.5,0,0,1,21.34,4.43c4.94-15.37,18.79-26.39,35-26.39,20.45,0,37,17.39,37,38.88,0,1.4-.07,2.76-.19,4.09a33.87,33.87,0,0,1,4.76-.33A34.66,34.66,0,0,1,315.6,271.22Z"/><path class="cls-2" d="M190.14,332.37c0,1.71-.08,3.41-.24,5.08-.06.68-.13,1.36-.22,2a54.78,54.78,0,0,1-29.25,41.57,54.61,54.61,0,0,1-41.67,38.67,56.06,56.06,0,0,1-5.85.87c-1.68.15-3.39.23-5.11.23h-.52A54.06,54.06,0,0,1,87.57,417a63.06,63.06,0,0,1-42.45,31.92l-2.13.41a64.29,64.29,0,0,1-11,1,62.87,62.87,0,0,1-31.8-8.59L0,441.53V213l.19,0c1.76.16,3.5.4,5.21.71a61.16,61.16,0,0,1,37,22.09,54.61,54.61,0,0,1,41.85-8.47.58.58,0,0,1,.19,0,52.7,52.7,0,0,1,5.62,1.48,54.23,54.23,0,0,1,11.43,5.2A55.07,55.07,0,0,1,119.75,252a54.21,54.21,0,0,1,7.89,22.39h0c.15,1.26.26,2.52.32,3.8a55.37,55.37,0,0,1,7.45-.51,54.66,54.66,0,0,1,54.73,54.73Z"/><path class="cls-3" d="M328.15,271.22a34.63,34.63,0,0,1-57.38,26.13c-4.21,13.75-18.51,23.88-35.46,23.88-20.27,0-36.71-14.44-36.71-32.32a29,29,0,0,1,1.55-9.25c-1.51.11-3.06.19-4.61.19-23.25,0-42.09-14.34-42.09-32s18.84-32,42.09-32a52.43,52.43,0,0,1,21.34,4.43c4.94-15.37,18.8-26.39,35.05-26.39,20.46,0,37,17.39,37,38.88,0,1.4-.08,2.76-.19,4.09a33.77,33.77,0,0,1,4.76-.33A34.66,34.66,0,0,1,328.15,271.22Z"/><polygon class="cls-2" points="132.52 340.1 126.47 370.3 244.21 275.22 238.56 263.41 132.52 340.1"/><path class="cls-2" d="M190.14,771.67H0V121.82H77.35L88.09,212l.68,5.72.14,1.23h0l.89,7.47.28,2.35L92.9,252.5h0l19.71,165.57.3,2.51,6.7,56.27,3.32,27.91.32,2.7,6.59,55.36a660.76,660.76,0,0,0,49.28,183.28Z"/><path class="cls-3" d="M246.2,119.2a57.9,57.9,0,0,1-8.77,30.7,61.35,61.35,0,0,1-36.68,26.84h0a63.09,63.09,0,0,1-16,2h-1.33a64.08,64.08,0,0,1-7.88-.65c-.39,1-.8,1.93-1.24,2.89-.59,1.27-1.22,2.53-1.91,3.77a63.43,63.43,0,0,1-6.58,9.78A64.27,64.27,0,0,1,109,218c-.8-.08-1.59-.18-2.38-.29a63.48,63.48,0,0,1-14.85-4q-1.84-.75-3.66-1.62a64.62,64.62,0,0,1-27.31-24.84,61.26,61.26,0,0,1-10.93,10.09,62.47,62.47,0,0,1-36.54,11.66,63.35,63.35,0,0,1-9.2-.67c-1.32-.19-2.63-.42-3.92-.7a.58.58,0,0,1-.19,0V121.82H.19V63.62A39.19,39.19,0,0,1,23.31,48.13a40.36,40.36,0,0,1,9.2-1.06q1,0,2,.06a39.73,39.73,0,0,1,17.56,5C55.46,25.67,76.77,4.6,103.84.67A63.35,63.35,0,0,1,113,0C147,0,174.51,26.69,174.51,59.6a4.7,4.7,0,0,1,0,.53,1.74,1.74,0,0,1,0,.32l1.08-.17a61.23,61.23,0,0,1,9.16-.68h.62a62.7,62.7,0,0,1,22.44,4.33,61.3,61.3,0,0,1,27.5,21.34A58.37,58.37,0,0,1,246.2,119.2Z"/><path class="cls-2" d="M299.25,133c0-18.45-13.49-33.42-30.12-33.42a28.37,28.37,0,0,0-19.77,8.21,31.83,31.83,0,0,0-30.82-23c-17.62,0-31.9,13.93-31.9,31.18a30.77,30.77,0,0,0,1.34,8.92c-1.31-.11-2.66-.18-4-.18-20.22,0-36.59,13.83-36.59,30.86s16.37,30.85,36.59,30.85a41.81,41.81,0,0,0,18.55-4.26c4.29,14.82,16.33,25.45,30.46,25.45,17.78,0,32.17-16.78,32.17-37.5,0-1.36-.07-2.67-.16-3.95a26.67,26.67,0,0,0,4.13.32C285.76,166.44,299.25,151.47,299.25,133Z"/><polygon class="cls-2" points="79.78 280.69 56.85 279.13 128.51 144.7 141.18 148.78 79.78 280.69"/><path class="cls-3" d="M212.1,332.37v.21c0,.21,0,.43,0,.64a54.71,54.71,0,0,1-29.69,47.83,54.65,54.65,0,0,1-52.63,39.77c-.34,0-.67,0-1,0a53.8,53.8,0,0,1-10-1.08,54.5,54.5,0,0,1-6.15-1.64c-1-.35-2.07-.72-3.08-1.13-.7,1.32-1.46,2.61-2.25,3.86A62.92,62.92,0,0,1,54,450.23a64.61,64.61,0,0,1-9-.63c-.67-.1-1.34-.2-2-.32A63,63,0,0,1,.19,420.17c-.07-.1-.13-.2-.19-.3v-205l.19,0q2.57-.71,5.21-1.18a62.22,62.22,0,0,1,11-1,61.17,61.17,0,0,1,41.15,15.8,61.88,61.88,0,0,1,6.84,7.27,54.07,54.07,0,0,1,19.89-8.47l.23-.05h0q2.61-.52,5.29-.79t5.46-.27a54.53,54.53,0,0,1,42.65,20.44,51.13,51.13,0,0,1,3.21,4.41,54.44,54.44,0,0,1,5.56,11.11h0c.38,1,.73,2.07,1,3.14a54,54,0,0,1,2.2,12.85,55.11,55.11,0,0,1,7.44-.51,54.44,54.44,0,0,1,28.87,8.23,55.05,55.05,0,0,1,10.11,8.07c1.34,1.36,2.59,2.77,3.8,4.27h0a54.32,54.32,0,0,1,5.41,8.2c.58,1.06,1.12,2.15,1.63,3.26l0,0v0a57,57,0,0,1,3.32,9.66A54.89,54.89,0,0,1,212.1,332.37Z"/><path class="cls-3" d="M310.15,133c0-18.45-13.49-33.42-30.11-33.42a28.37,28.37,0,0,0-19.77,8.21,31.83,31.83,0,0,0-30.82-23c-17.62,0-31.91,13.93-31.91,31.18a30.44,30.44,0,0,0,1.35,8.92c-1.32-.11-2.66-.18-4-.18-20.21,0-36.58,13.83-36.58,30.86s16.37,30.85,36.58,30.85a41.77,41.77,0,0,0,18.55-4.26c4.29,14.82,16.34,25.45,30.47,25.45,17.78,0,32.16-16.78,32.16-37.5,0-1.36-.06-2.67-.16-3.95a26.9,26.9,0,0,0,4.14.32C296.66,166.44,310.15,151.47,310.15,133Z"/><path class="cls-3" d="M266.12,440.32a1.56,1.56,0,0,1-.62-.12l.48-.59A3.88,3.88,0,0,0,266.12,440.32Z"/><path class="cls-3" d="M266.12,440.32a1.56,1.56,0,0,1-.62-.12l.48-.59A3.88,3.88,0,0,0,266.12,440.32Z"/><path class="cls-3" d="M341.9,361.19a65.69,65.69,0,0,0-114.62-27.5,65.7,65.7,0,0,0-52,116.94,65.49,65.49,0,0,0,51.75,33.17,65.68,65.68,0,0,0,84.06,4.91A65.7,65.7,0,1,0,341.9,361.19Zm-76.4,79,.48-.59a3.88,3.88,0,0,0,.14.71A1.56,1.56,0,0,1,265.5,440.2Z"/><path class="cls-3" d="M266.12,440.32a1.56,1.56,0,0,1-.62-.12l.48-.59A3.88,3.88,0,0,0,266.12,440.32Z"/><path class="cls-3" d="M373.18,373.82c-2.4,11.69-15.73,19.72-15.89,18.8s-9.58-11.86-7.18-23.55S366,350.28,366,350.28,375.59,362.13,373.18,373.82Z"/><path class="cls-3" d="M45,449.55c-2.4,11.69-15.73,19.73-15.89,18.8s-9.58-11.85-7.18-23.54S37.82,426,37.82,426,47.41,437.86,45,449.55Z"/><path class="cls-3" d="M208.8,60.58c-2.4,11.69-15.73,19.73-15.89,18.8s-9.58-11.85-7.18-23.54S201.62,37,201.62,37,211.21,48.89,208.8,60.58Z"/><path class="cls-3" d="M308.47,126.11c11.82-1.62,23.83,8.28,23,8.74s-8,13-19.82,14.59-23-8.73-23-8.73S296.64,127.73,308.47,126.11Z"/><path class="cls-4" d="M125.07,61.58c10.08,6.39,12.87,21.69,12,21.51s-14.48,4.77-24.56-1.62S100.51,60,100.51,60,115,55.19,125.07,61.58Z"/><path class="cls-4" d="M133.7,116.14c-7.19,9.54-22.67,11.08-22.41,10.18s-3.58-14.82,3.6-24.35S137.3,91.8,137.3,91.8,140.88,106.61,133.7,116.14Z"/><path class="cls-4" d="M262.66,237c-7.18,9.54-22.66,11.08-22.41,10.18s-3.58-14.82,3.6-24.35,22.42-10.17,22.42-10.17S269.85,227.51,262.66,237Z"/><path class="cls-4" d="M253.22,166c-6.24-9.19-19.7-10.68-19.48-9.81s-3.11,14.29,3.14,23.48,19.48,9.82,19.48,9.82S259.47,175.15,253.22,166Z"/><path class="cls-4" d="M267,390.75c-10.55-5.59-14.52-20.64-13.58-20.53s14.06-5.87,24.61-.28,13.58,20.53,13.58,20.53S277.56,396.34,267,390.75Z"/><path class="cls-4" d="M108.92,272.86c-10.55-5.59-14.51-20.64-13.58-20.53s14.06-5.87,24.61-.28,13.58,20.53,13.58,20.53S119.46,278.45,108.92,272.86Z"/><path class="cls-2" d="M20.85,313.74C17,325,2.73,331.29,2.69,330.35c0-.37-1.24-2.44-2.5-5.5-.06-.15-.13-.31-.19-.48V302.94c.06-.11.12-.22.19-.33,5.21-8.91,16.55-13.14,16.55-13.14S24.73,302.45,20.85,313.74Z"/><path class="cls-2" d="M37.22,361.41c-11.31,3.8-24.95-3.68-24.23-4.29s5.43-14.24,16.74-18S54,343.38,54,343.38,48.54,357.62,37.22,361.41Z"/><path class="cls-2" d="M288.57,470.72c-8.9,7.95-24.38,6.46-24,5.62s-.64-15.22,8.26-23.18,24-5.63,24-5.63S297.47,462.76,288.57,470.72Z"/><path class="cls-2" d="M23.31,121.82a22.36,22.36,0,0,1-5.75,8.6c-5,4.5-12.19,6-17.37,6.26H0V121.82H.19v-7.25a16.91,16.91,0,0,1,1.68-1.71c8.89-8,24-5.63,24-5.63A40.23,40.23,0,0,1,23.31,121.82Z"/><path class="cls-2" d="M261.32,144.67c-8.9,8-24.39,6.47-24,5.63s-.64-15.23,8.26-23.18,24-5.63,24-5.63S270.22,136.72,261.32,144.67Z"/><polygon class="cls-2" points="77.35 499.61 80.29 530.76 256.97 423.05 251.06 406.08 77.35 499.61"/><polygon class="cls-2" points="137.91 246.63 147.39 263.41 210.96 160.15 206.24 144.7 137.91 246.63"/><path class="cls-2" d="M1340.74,761.38l0,.38s0,.55-.17,1.35a22.11,22.11,0,0,1-.64,2.87c-.21.64-.46,1.27-.7,1.81l9.22,4.56a1.13,1.13,0,0,1,.12-.21c.36-.65.87-1.5,1.42-2.34s1.14-1.65,1.6-2.25c.23-.3.43-.54.57-.71l.22-.28.22-.26c.15-.17.34-.42.6-.7.5-.58,1.19-1.32,1.92-2.05s1.49-1.43,2.08-1.94c.29-.26.55-.47.72-.62l.28-.23-.31.21c-.19.13-.47.31-.8.55-.66.45-1.51,1.08-2.34,1.74s-1.62,1.35-2.19,1.88c-.21.18-.38.35-.53.48l1-1.36c.53-.67,1.08-1.33,1.51-1.81.21-.25.4-.44.53-.58l.2-.22-.24.19c-.14.13-.36.3-.61.52-.5.43-1.15,1-1.78,1.64s-1.23,1.24-1.67,1.73l-.52.59-.2.22-.19.23-.5.6c-.41.51-.93,1.2-1.44,1.9l-.31.45c.06-.16.13-.32.2-.49.3-.66.61-1.32.87-1.8.12-.25.23-.44.31-.58l.12-.22.12-.22c.09-.14.2-.34.34-.57.28-.47.68-1.09,1.1-1.7s.88-1.19,1.23-1.62c.17-.22.33-.39.43-.52l.17-.2-.2.18c-.12.11-.31.26-.52.46-.42.38-1,.9-1.5,1.45s-1,1.1-1.39,1.53c-.19.22-.33.4-.43.53l-.17.2-.16.2c-.09.13-.24.32-.41.54s-.35.48-.54.76c.36-.63.72-1.24,1-1.7l.63-1,.65-1c.39-.58.94-1.33,1.51-2.08s1.17-1.47,1.63-2l.77-.89-.89.81c-.54.49-1.23,1.15-1.9,1.83s-1.32,1.38-1.79,1.91l-.78.89-.35.41.32-.65.18-.34.18-.33c.06-.11.13-.24.22-.38s.18-.31.29-.49c.22-.35.5-.75.81-1.17s.68-.85,1.06-1.26a16.51,16.51,0,0,1,1.22-1.16c.42-.34.83-.65,1.21-.9.18-.12.35-.23.51-.32l.42-.24.37-.2-.4.17a3.41,3.41,0,0,0-.44.21,5.12,5.12,0,0,0-.57.29c-.4.21-.85.49-1.32.8a16.91,16.91,0,0,0-1.37,1.07c-.44.39-.86.79-1.23,1.19s-.55.61-.78.9c.41-.77,1-1.74,1.54-2.68a22.16,22.16,0,0,1,2-2.66l.21-.25.21-.21.34-.35.3-.3-.33.28-.38.32-.23.19-.24.23a24.51,24.51,0,0,0-2.26,2.51c-.75,1-1.44,2-1.94,2.71l-.82,1.26-.82,1.27c-.49.75-1.16,1.75-1.87,2.71-.21.29-.43.56-.64.83l.56-1.08c1.07-2.09,2.08-4.21,2.08-4.21s1-2.11,1.94-4.26,1.82-4.33,1.82-4.33-1.09,2.08-2.24,4.12-2.36,4-2.36,4-1.22,2-2.49,4l-.44.67.21-.5c.41-1,.78-2,1-2.77.13-.38.23-.7.3-.92l.11-.36.11-.35c.06-.23.17-.55.27-.94.22-.78.47-1.83.7-2.89s.4-2.14.51-3c.06-.41.1-.75.13-1l.05-.38-.09.36c0,.23-.12.56-.23,1-.19.79-.49,1.82-.81,2.83s-.7,2-1,2.76c-.14.37-.28.67-.37.89l-.14.33-.14.33c-.1.22-.23.52-.4.88-.34.72-.81,1.66-1.32,2.59l-.06.11a22.45,22.45,0,0,0,.25-2.44c0-.85,0-1.42,0-1.42v-.4c0-.25,0-.6,0-1,0-.86-.15-2-.3-3.17s-.35-2.32-.52-3.19l-.27-1.45.13,1.43c.08.86.16,2,.21,3.14s0,2.25,0,3.08C1340.79,760.8,1340.75,761.14,1340.74,761.38Z"/><path class="cls-5" d="M1296.63,772.35c2.58-7.05,19.31-20.94,23.26-21.91,13.22-3.27,25.65,13.91,32,21.74Z"/><path class="cls-6" d="M646,613.75c10.52,11.85,8.46,32.4,7.35,31.83s-20.22.77-30.74-11.08-7.35-31.84-7.35-31.84S635.45,601.89,646,613.75Z"/><path class="cls-6" d="M736,642c-13.36,9.62-34.39,5.32-33.69,4.23s14.53-16.79,27.89-26.42,20.5-8.42,20.5-8.42S749.36,632.36,736,642Z"/><path class="cls-7" d="M733.79,644.85c-14,8.61-34.69,2.79-33.9,1.75s15.71-15.68,29.75-24.3,21.06-6.89,21.06-6.89S747.82,636.23,733.79,644.85Z"/><path class="cls-6" d="M696.94,624.11c-3,12.89-17.9,21.46-18.06,20.43s-10.32-13.36-7.37-26.25,18.06-20.44,18.06-20.44S699.89,611.22,696.94,624.11Z"/><path class="cls-7" d="M650.18,613.75c10.51,11.85,8.46,32.4,7.35,31.83s-20.22.77-30.74-11.08-7.35-31.84-7.35-31.84S639.66,601.89,650.18,613.75Z"/><path class="cls-7" d="M697.65,627.66c-3.63,12.72-19,20.48-19.11,19.44s-9.61-13.89-6-26.6,19.12-19.45,19.12-19.45S701.28,614.94,697.65,627.66Z"/><path class="cls-8" d="M612.74,772.65H746.4S686.12,637.46,612.74,772.65Z"/><path class="cls-7" d="M655.94,642.87a122.43,122.43,0,0,1,14.92,19.46,65.69,65.69,0,0,1,5.4,11.24,69.4,69.4,0,0,1,3,12.12A168.4,168.4,0,0,1,681,710.21a153.26,153.26,0,0,1-1.88,24.4c-.34-8.16-.67-16.24-1.24-24.3-.33-4-.6-8-1-12s-.8-8-1.46-11.94a71.77,71.77,0,0,0-7.23-22.49C664.55,656.68,660.1,649.89,655.94,642.87Z"/><path class="cls-6" d="M624.29,607.78c1.47,1,2.89,2.13,4.32,3.22s2.79,2.27,4.14,3.47a49.27,49.27,0,0,1,3.87,3.78l3.56,4.06c2.42,2.67,4.5,5.6,6.67,8.46l3.2,4.33c1,1.47,2.11,2.91,3.12,4.4-1.2-1.35-2.34-2.74-3.51-4.1l-3.41-4.15c-1.15-1.38-2.25-2.79-3.38-4.18-.57-.7-1.09-1.43-1.68-2.1l-1.77-2-3.49-4.07c-1.16-1.36-2.45-2.59-3.71-3.86C629.67,612.53,627,610.19,624.29,607.78Z"/><path class="cls-6" d="M688.34,609.21c0,1.28,0,2.56,0,3.84s-.14,2.56-.26,3.84a34.65,34.65,0,0,1-.57,3.81l-.88,3.75c-.55,2.51-1.39,4.93-2.18,7.36l-1.23,3.63c-.44,1.2-.86,2.41-1.33,3.6.26-1.26.58-2.5.86-3.74l1-3.71c.31-1.23.67-2.46,1-3.68s.67-2.46.95-3.7l.92-3.69c.32-1.23.51-2.48.74-3.73C687.71,614.29,688,611.75,688.34,609.21Z"/><path class="cls-6" d="M739.88,624.92c-2.4.93-4.84,1.77-7.17,2.81a50,50,0,0,0-6.71,3.64c-2.16,1.36-4.3,2.79-6.45,4.19l-6.43,4.27c1-.87,2-1.69,2.93-2.52s2-1.59,3.06-2.38c2.06-1.55,4.18-3,6.36-4.41a36.8,36.8,0,0,1,6.95-3.5c1.22-.45,2.46-.84,3.7-1.2S738.62,625.18,739.88,624.92Z"/><path class="cls-7" d="M703.2,642.87c-4.16,7-8.62,13.81-12.19,21a71.77,71.77,0,0,0-7.23,22.49c-.66,3.92-1.07,7.92-1.46,11.94s-.71,8-1,12c-.57,8.06-.9,16.14-1.24,24.3a152.11,152.11,0,0,1-1.88-24.4,168.4,168.4,0,0,1,1.67-24.52,69.4,69.4,0,0,1,3-12.12,65.69,65.69,0,0,1,5.4-11.24A122.43,122.43,0,0,1,703.2,642.87Z"/><rect class="cls-5" y="121.82" width="0.19" height="649.85"/></g></g></svg>