<svg xmlns="http://www.w3.org/2000/svg" viewBox="0 0 564.72 67.84"><defs><style>.cls-1{fill:#f8f1f4;}</style></defs><g id="Capa_2" data-name="Capa 2"><g id="Capa_4" data-name="Capa 4"><path class="cls-1" d="M56.26,55.79,43.07,57.06a22,22,0,0,0-5.54,1.28l-6.92,2.59,1.53,3.95-6.42,1.37L25.5,62l-7.37.47a21.57,21.57,0,0,0-5.58,1.1L0,67.84l4.32-4.32a23.91,23.91,0,0,1,3.43-2.9l.51-.36a17.42,17.42,0,0,1,14.15-2.63l2-1.83a4.89,4.89,0,0,1,2-1.12.9.9,0,0,1,.25-.08.66.66,0,0,1,.24,0,4.81,4.81,0,0,1,2.25.22l2.55.86a17.55,17.55,0,0,1,7.09-3.31,17.18,17.18,0,0,1,6.89-.08l.61.12a24.29,24.29,0,0,1,4.32,1.23Z"/><path class="cls-1" d="M308.45,63.39l-7.91-1.91a13.47,13.47,0,0,0-3.47-.36l-4.53.12.1,2.59-4-.49.72-2.49L285,59.64a13.56,13.56,0,0,0-3.46-.48l-8.13,0,3.37-1.64a15.15,15.15,0,0,1,2.58-1l.36-.1a10.6,10.6,0,0,1,4.22-.33,10.79,10.79,0,0,1,4.52,1.64L290,57a3.06,3.06,0,0,1,1.36-.26.42.42,0,0,1,.16,0,.32.32,0,0,1,.14,0,2.9,2.9,0,0,1,1.26.58l1.31,1a10.72,10.72,0,0,1,8.79.83l.33.19A15.5,15.5,0,0,1,305.57,61Z"/><path class="cls-1" d="M564.72,31.26,554.5,22.84a21.72,21.72,0,0,0-4.83-3L543,16.77l-1.71,3.87-5.51-3.57,2.83-3.14L533,9.05a21.68,21.68,0,0,0-4.72-3.17L516.42,0h6.11A25.1,25.1,0,0,1,527,.38l.62.11A17.23,17.23,0,0,1,534,3a17.66,17.66,0,0,1,5.46,5.62l2.69.1a4.88,4.88,0,0,1,2.17.59.73.73,0,0,1,.23.13.59.59,0,0,1,.2.15,4.87,4.87,0,0,1,1.43,1.74l1.19,2.41a17.36,17.36,0,0,1,7.36,2.68,17,17,0,0,1,4.93,4.81l.35.52a24.71,24.71,0,0,1,2.18,3.92Z"/></g></g></svg>