<svg xmlns="http://www.w3.org/2000/svg" viewBox="0 0 1366 299.05"><defs><style>.cls-1{fill:#b3a3fb;}.cls-2{fill:#6951ea;}</style></defs><g id="Capa_2" data-name="Capa 2"><g id="Capa_4" data-name="Capa 4"><path class="cls-1" d="M404.24,215.62a86.67,86.67,0,0,1-50.45,79.06,83.8,83.8,0,0,1-12,4.37H3.84c-1.3-.41-2.58-.86-3.84-1.36v-127a66,66,0,0,1,38.48-2.85,136.39,136.39,0,0,1-4-33C34.46,60.35,93.85,0,167.11,0,239.22,0,297.9,58.46,299.74,131.31a84.24,84.24,0,0,1,76.12,19.81A86.93,86.93,0,0,1,404.24,215.62Z"/><path class="cls-2" d="M588.57,252a53.83,53.83,0,0,1-27.39,47.09H330.12a42.34,42.34,0,0,1-19.18-35.57c0-23.32,18.61-42.22,41.55-42.22a40.86,40.86,0,0,1,9,1,84.81,84.81,0,0,1,14.33-71.15,81.71,81.71,0,0,1,65.51-33c44.77,0,81.19,36.29,82.33,81.51a52.35,52.35,0,0,1,12-1.39C564.91,198.24,588.57,222.29,588.57,252Z"/><path class="cls-1" d="M1366,168.42V299.05H1031a81,81,0,0,1-12-4.37,87.31,87.31,0,0,1-24.26-141.5A84.27,84.27,0,0,1,1073,131.31C1074.85,58.46,1133.53,0,1205.65,0c73.25,0,132.65,60.35,132.65,134.81a136.89,136.89,0,0,1-4,33,66.08,66.08,0,0,1,31.72.63Z"/><path class="cls-2" d="M1058.11,263.48a42.34,42.34,0,0,1-19.17,35.57H807.88A53.82,53.82,0,0,1,780.48,252c0-29.67,23.67-53.72,52.86-53.72a52.35,52.35,0,0,1,12,1.39c1.14-45.22,37.56-81.51,82.33-81.51a81.86,81.86,0,0,1,67,35.06,84.88,84.88,0,0,1,12.82,69.09,40.7,40.7,0,0,1,9-1C1039.51,221.26,1058.11,240.16,1058.11,263.48Z"/></g></g></svg>