<svg xmlns="http://www.w3.org/2000/svg" viewBox="0 0 700.4 407.6"><defs><style>.cls-1{fill:#f8f1f4;}.cls-2{fill:#6951ea;}.cls-3{fill:#dbd6fc;}</style></defs><g id="Capa_2" data-name="Capa 2"><g id="Capa_4" data-name="Capa 4"><rect class="cls-1" x="335.31" y="281.17" width="5.43" height="80.49"/><path class="cls-2" d="M321.74,274.25l-5.06.39a17.87,17.87,0,0,0-11.93,6.11h0a1.65,1.65,0,0,0,1,2.75h34.64l-.74-.89A22.16,22.16,0,0,0,321.74,274.25Z"/><path class="cls-2" d="M333.35,265.87l-3.08-3.59a14.64,14.64,0,0,0-10.78-5.17h0a1.65,1.65,0,0,0-1.31,2.52L337.43,286l.19-1.13C338.85,277.74,337.29,270.83,333.35,265.87Z"/><path class="cls-2" d="M341.15,265.87l3.07-3.59A14.65,14.65,0,0,1,355,257.11h0a1.65,1.65,0,0,1,1.31,2.52L337.06,286l-.19-1.13C335.65,277.74,337.21,270.83,341.15,265.87Z"/><path class="cls-2" d="M352.45,274.25l5.05.39a17.87,17.87,0,0,1,11.93,6.11h0a1.64,1.64,0,0,1-1,2.75H333.79l.74-.89A22.17,22.17,0,0,1,352.45,274.25Z"/><path class="cls-2" d="M349.07,286.32l2.5,3.57a18.39,18.39,0,0,1,3.21,11.19h0a1.11,1.11,0,0,1-2,.8l-18.5-23h.85A17.84,17.84,0,0,1,349.07,286.32Z"/><path class="cls-2" d="M328.08,286.32l-2.5,3.57a18.39,18.39,0,0,0-3.21,11.19h0a1.11,1.11,0,0,0,2,.8l18.5-23H342A17.84,17.84,0,0,0,328.08,286.32Z"/><path class="cls-1" d="M277.69,76.51a76.59,76.59,0,0,0,97.68,73.54h0A76.52,76.52,0,1,0,293.16,30.4a74.85,74.85,0,0,0-6.53,10.2,76.23,76.23,0,0,0-8.94,35.91Z"/><rect class="cls-1" x="595.44" y="82.88" width="5.43" height="80.49"/><path class="cls-2" d="M581.86,76l-5.06.39a17.87,17.87,0,0,0-11.92,6.11h0a1.64,1.64,0,0,0,1,2.75h34.63l-.73-.89A22.17,22.17,0,0,0,581.86,76Z"/><path class="cls-2" d="M593.47,67.58,590.39,64a14.63,14.63,0,0,0-10.77-5.17h0a1.66,1.66,0,0,0-1.32,2.52l19.25,26.32.2-1.13C599,79.45,597.41,72.54,593.47,67.58Z"/><path class="cls-2" d="M601.27,67.58,604.35,64a14.63,14.63,0,0,1,10.77-5.17h0a1.66,1.66,0,0,1,1.32,2.52L597.19,87.66l-.2-1.13C595.77,79.45,597.33,72.54,601.27,67.58Z"/><path class="cls-2" d="M612.57,76l5.06.39a17.87,17.87,0,0,1,11.92,6.11h0a1.64,1.64,0,0,1-1,2.75H593.92l.73-.89A22.17,22.17,0,0,1,612.57,76Z"/><path class="cls-2" d="M609.19,88l2.5,3.57a18.39,18.39,0,0,1,3.21,11.19h0a1.11,1.11,0,0,1-2,.8l-18.5-23h.86A17.8,17.8,0,0,1,609.19,88Z"/><path class="cls-2" d="M588.2,88l-2.5,3.57a18.45,18.45,0,0,0-3.2,11.19h0a1.11,1.11,0,0,0,2,.8l18.5-23h-.86A17.84,17.84,0,0,0,588.2,88Z"/><path class="cls-3" d="M693.43,371.53l7,36.07H346.21C378.51,201.44,441.13,90.08,524.29,89c48.38-.61,86.91,53.21,116.87,122.36C662.87,261.51,680.09,319.68,693.3,371,693.35,371.2,693.39,371.37,693.43,371.53Z"/><path class="cls-3" d="M347.22,374.6l7,33H0C32.3,219,94.92,117.09,178.08,116.13c48.38-.56,86.91,48.68,116.87,112,21.71,45.86,38.93,99.08,52.14,146C347.14,374.29,347.18,374.45,347.22,374.6Z"/><rect class="cls-1" x="109.63" y="230.61" width="11.87" height="175.87"/><path class="cls-2" d="M80,215.49l-11,.86a39,39,0,0,0-26,13.34h0c-2,2.21-.59,6,2.18,6h75.68l-1.61-2C109,221.56,94.72,214.9,80,215.49Z"/><path class="cls-2" d="M105.33,197.18l-6.73-7.85a32,32,0,0,0-23.54-11.28h0c-2.6-.09-4.42,3.39-2.88,5.5l42.07,57.5.42-2.46C117.35,223.12,113.94,208,105.33,197.18Z"/><path class="cls-2" d="M122.37,197.18l6.73-7.85a32,32,0,0,1,23.54-11.28h0c2.6-.09,4.42,3.39,2.88,5.5l-42.07,57.5-.42-2.46C110.35,223.12,113.76,208,122.37,197.18Z"/><path class="cls-2" d="M147.06,215.49l11.05.86a39,39,0,0,1,26,13.34h0c2,2.21.59,6-2.18,6H106.3l1.61-2C118,221.56,132.3,214.9,147.06,215.49Z"/><path class="cls-2" d="M139.69,241.87l5.46,7.8a40.23,40.23,0,0,1,7,24.44h0c-.1,2.49-2.81,3.6-4.29,1.76l-40.42-50.29,1.87,0C121,225.82,132.11,231.74,139.69,241.87Z"/><path class="cls-2" d="M93.82,241.87l-5.46,7.8a40.16,40.16,0,0,0-7,24.44h0c.1,2.49,2.8,3.6,4.29,1.76l40.42-50.29-1.87,0C112.47,225.82,101.4,231.74,93.82,241.87Z"/></g></g></svg>