<svg xmlns="http://www.w3.org/2000/svg" viewBox="0 0 32.21 53.1"><defs><style>.cls-1{fill:#4e7a0e;}.cls-2{fill:#94c43a;}</style></defs><g id="Capa_2" data-name="Capa 2"><g id="Capa_6" data-name="Capa 6"><path class="cls-1" d="M25.88,13.2C20.12,17.35,11.06,15.5,11.37,15a76.62,76.62,0,0,1,12-11.38C29.14-.5,32.21,0,32.21,0S31.64,9.06,25.88,13.2Z"/><path class="cls-2" d="M24.93,14.44c-6.05,3.71-14.94,1.2-14.61.75A77.55,77.55,0,0,1,23.14,4.72c6-3.71,9.07-3,9.07-3S31,10.73,24.93,14.44Z"/><path class="cls-1" d="M27.55,5.85c-1,.51-2,.94-3,1.42A25.35,25.35,0,0,0,21.74,8.9c-1,.52-1.84,1.2-2.79,1.76A28.53,28.53,0,0,1,16,12.28,29.39,29.39,0,0,1,18.5,10a20.49,20.49,0,0,1,2.72-2l1.46-.85a10.62,10.62,0,0,1,1.57-.65A15.65,15.65,0,0,1,27.55,5.85Z"/><path class="cls-2" d="M11.75,13.58C10.34,16.89,8.62,20,7.28,23a35.61,35.61,0,0,0-2.77,9.44c-.5,3.3-.88,6.77-1.3,10.19S2.39,49.56,1.77,53.1A44.53,44.53,0,0,1,.06,42.56a55.11,55.11,0,0,1,.5-10.71A26.81,26.81,0,0,1,2,26.46a24.94,24.94,0,0,1,2.56-4.92A37.75,37.75,0,0,1,11.75,13.58Z"/></g></g></svg>