<svg xmlns="http://www.w3.org/2000/svg" viewBox="0 0 984.68 175.51"><defs><style>.cls-1{fill:#b3a3fb;opacity:0.63;}.cls-2,.cls-3{fill:#6951ea;}.cls-2{opacity:0.37;}.cls-3{opacity:0.36;}.cls-4{fill:#f8f1f4;}</style></defs><g id="Capa_2" data-name="Capa 2"><g id="Capa_5" data-name="Capa 5"><path class="cls-1" d="M865.3,65.74A18,18,0,0,0,883.16,83.9H962a22.4,22.4,0,0,0,9.26-2A23.17,23.17,0,0,0,962,37.69a22.49,22.49,0,0,0-5.16.6c-.49-19.44-16.16-35-35.41-35-19.55,0-35.41,16.11-35.41,36A36.52,36.52,0,0,0,887.05,48a17.18,17.18,0,0,0-3.89-.44A18,18,0,0,0,865.3,65.74Z"/><path class="cls-1" d="M519.29,106.8a7.4,7.4,0,0,0,7.34,7.45H559a9.13,9.13,0,0,0,3.8-.82A9.51,9.51,0,0,0,559,95.28a9.25,9.25,0,0,0-2.12.24,14.54,14.54,0,1,0-29.08.39,14.87,14.87,0,0,0,.44,3.61,7.07,7.07,0,0,0-1.6-.18A7.4,7.4,0,0,0,519.29,106.8Z"/><path class="cls-2" d="M406.81,156.47c0,10.52,8,19,17.87,19h78.78a21.42,21.42,0,0,0,9.26-2.1,24.35,24.35,0,0,0,13.47-22.13c0-13.38-10.18-24.23-22.73-24.23a21.45,21.45,0,0,0-5.16.63c-.5-20.39-16.16-36.76-35.4-36.76-19.56,0-35.41,16.9-35.41,37.74a40,40,0,0,0,1.07,9.23,16.61,16.61,0,0,0-3.88-.45C414.81,137.44,406.81,146,406.81,156.47Z"/><path class="cls-1" d="M65.49,50.67c0,7.4,5.63,13.41,12.58,13.41h55.49a15.14,15.14,0,0,0,6.53-1.48A17.14,17.14,0,0,0,149.57,47c0-9.43-7.17-17.06-16-17.06a15.12,15.12,0,0,0-3.64.44C129.58,16,118.55,4.5,105,4.5c-13.77,0-24.94,11.9-24.94,26.58a28.34,28.34,0,0,0,.75,6.5,11.66,11.66,0,0,0-2.73-.32C71.12,37.26,65.49,43.26,65.49,50.67Z"/><path class="cls-3" d="M0,27.08A7.63,7.63,0,0,0,7.38,35H39.93a8.82,8.82,0,0,0,3.83-.87,10.05,10.05,0,0,0,5.56-9.14c0-5.53-4.2-10-9.39-10a8.87,8.87,0,0,0-2.13.26C37.6,6.76,31.13,0,23.17,0S8.54,7,8.54,15.59A16.57,16.57,0,0,0,9,19.41a6.63,6.63,0,0,0-1.61-.19A7.63,7.63,0,0,0,0,27.08Z"/><path class="cls-4" d="M687.74,43.57A28.6,28.6,0,0,0,724.19,71h0a28.75,28.75,0,0,0,9.3-4.66A28.54,28.54,0,0,0,716.29,15a26.23,26.23,0,0,0-3.21.18,28.61,28.61,0,0,0-22,15,27.92,27.92,0,0,0-2.42,6.2A28.47,28.47,0,0,0,687.74,43.57Z"/></g></g></svg>