<svg xmlns="http://www.w3.org/2000/svg" viewBox="0 0 85.11 165.88"><defs><style>.cls-1{fill:#6951ea;}.cls-2{fill:#b3a3fb;}.cls-3{fill:#dbd6fc;}.cls-4{fill:#f8f1f4;}</style></defs><g id="Capa_2" data-name="Capa 2"><g id="Capa_6" data-name="Capa 6"><path class="cls-1" d="M49,25.62a12.56,12.56,0,0,1-3.61,8.81h0a13.31,13.31,0,0,1-5.51,3.38h0a13.59,13.59,0,0,1-3.16.59h0q-.47,0-.93,0a14.19,14.19,0,0,1-1.47-.07l-.51-.07a13.91,13.91,0,0,1-2.09,3.54,13.76,13.76,0,0,1-8.18,4.86l-.58.1a13.74,13.74,0,0,1-3.68,0l-.16,0a13.81,13.81,0,0,1-8.36-4.4A13.92,13.92,0,0,1,9.1,40.24,13.25,13.25,0,0,1,.88,44.77l-.84.1H0V26.19H0V10.65a8.71,8.71,0,0,1,3-.53,8.59,8.59,0,0,1,2,.23,8.37,8.37,0,0,1,2.22.85c0-.36.11-.72.19-1.07A13.11,13.11,0,0,1,20.34,0a14.31,14.31,0,0,1,2,.14A13,13,0,0,1,33.55,12.81a1.09,1.09,0,0,1,0,.18,13.36,13.36,0,0,1,2.21-.18,12.9,12.9,0,0,1,1.76.12,1.81,1.81,0,0,1,.23,0,13.59,13.59,0,0,1,2.14.49,13.24,13.24,0,0,1,6.66,4.78l.31.44A12.44,12.44,0,0,1,49,25.62Z"/><path class="cls-1" d="M68.69,79.13a14.11,14.11,0,0,0-24.64-5.91A13.69,13.69,0,0,0,41.4,73a14.13,14.13,0,0,0-8.52,25.4A14.09,14.09,0,0,0,44,105.49a14.15,14.15,0,0,0,18.08,1.05,13.83,13.83,0,0,0,4.1.61,14.12,14.12,0,0,0,2.51-28Zm-16.42,17,.1-.12,0,.15A.28.28,0,0,1,52.27,96.11Z"/><path class="cls-1" d="M67.85,58.3a7.45,7.45,0,0,1-12.34,5.62,7.8,7.8,0,0,1-7.62,5.14c-4.36,0-7.89-3.11-7.89-7a6.29,6.29,0,0,1,.33-2c-.33,0-.66,0-1,0-5,0-9.05-3.08-9.05-6.88s4.05-6.88,9.05-6.88a11.34,11.34,0,0,1,4.59,1,8,8,0,0,1,7.53-5.67,8.16,8.16,0,0,1,8,8.36c0,.3,0,.59,0,.88a6.81,6.81,0,0,1,1-.07A7.45,7.45,0,0,1,67.85,58.3Z"/><path class="cls-1" d="M40.87,71.45a9.83,9.83,0,0,1,0,1.09c0,.15,0,.29,0,.44a11.78,11.78,0,0,1-6.29,8.93,11.8,11.8,0,0,1-9,8.32q-.62.12-1.26.18a10,10,0,0,1-1.1,0h-.11a11.56,11.56,0,0,1-4.24-.83A13.53,13.53,0,0,1,9.7,96.49l-.46.09a14.18,14.18,0,0,1-2.36.21,13.85,13.85,0,0,1-2.25-.19A13.43,13.43,0,0,1,0,94.94l0,0V45.78H0c.38,0,.75.09,1.12.15a13.19,13.19,0,0,1,8,4.75,11.48,11.48,0,0,1,3.25-1.56,11.83,11.83,0,0,1,3.39-.5,12.27,12.27,0,0,1,2.36.24h0a9.63,9.63,0,0,1,1.2.32,11.64,11.64,0,0,1,2.46,1.11,11.86,11.86,0,0,1,3.92,3.86A11.6,11.6,0,0,1,27.44,59h0c0,.27,0,.54.07.81a11.94,11.94,0,0,1,1.6-.11,11.74,11.74,0,0,1,10.07,5.69,11.5,11.5,0,0,1,1.39,3.42A11.73,11.73,0,0,1,40.87,71.45Z"/><path class="cls-2" d="M70.54,58.3a7.44,7.44,0,0,1-12.33,5.62,7.81,7.81,0,0,1-7.63,5.14c-4.35,0-7.89-3.11-7.89-7a6,6,0,0,1,.34-2c-.33,0-.66,0-1,0-5,0-9-3.08-9-6.88s4-6.88,9-6.88a11.25,11.25,0,0,1,4.58,1,8,8,0,0,1,7.54-5.67,8.16,8.16,0,0,1,8,8.36,8.51,8.51,0,0,1,0,.88,7,7,0,0,1,1-.07A7.44,7.44,0,0,1,70.54,58.3Z"/><polygon class="cls-1" points="28.49 73.11 27.19 79.6 52.5 59.16 51.28 56.63 28.49 73.11"/><path class="cls-1" d="M40.87,165.88H0V26.19H16.63l2.31,19.39.14,1.23,0,.26h0l.19,1.6.06.51L20,54.28h0l4.24,35.59.06.54,1.44,12.1.72,6,.06.58L27.91,121a142.12,142.12,0,0,0,10.6,39.4Z"/><path class="cls-2" d="M52.93,25.62a11.94,11.94,0,0,1-.12,1.7A12.44,12.44,0,0,1,51,32.22,13.16,13.16,0,0,1,43.15,38h0a13.46,13.46,0,0,1-3.44.44h-.29a13.59,13.59,0,0,1-1.69-.14c-.08.21-.17.42-.27.62a7.68,7.68,0,0,1-.41.81,14.36,14.36,0,0,1-1.41,2.11,13.8,13.8,0,0,1-12.21,5,4.43,4.43,0,0,1-.51-.06,13.42,13.42,0,0,1-3.2-.86l-.78-.35a14.11,14.11,0,0,1-2.75-1.74,13.79,13.79,0,0,1-3.12-3.6,13.46,13.46,0,0,1-2.35,2.17,13.51,13.51,0,0,1-7.86,2.51,13,13,0,0,1-2-.15L0,44.62H0V26.19H0V13.68a8.45,8.45,0,0,1,5-3.33,8.65,8.65,0,0,1,2-.23h.43A8.72,8.72,0,0,1,11.2,11.2,13,13,0,0,1,22.32.14a14.42,14.42,0,0,1,2-.14A13,13,0,0,1,37.51,12.81V13l.23,0a12.78,12.78,0,0,1,2-.15h.13a13.57,13.57,0,0,1,4.83.94,13.16,13.16,0,0,1,5.91,4.58,14.36,14.36,0,0,1,1,1.59A12.46,12.46,0,0,1,52.93,25.62Z"/><path class="cls-1" d="M64.33,28.59c0-4-2.9-7.18-6.48-7.18a6.06,6.06,0,0,0-4.24,1.76,6.85,6.85,0,0,0-6.63-5,6.77,6.77,0,0,0-6.86,6.7,6.42,6.42,0,0,0,.29,1.92c-.28,0-.57,0-.86,0-4.35,0-7.87,3-7.87,6.63s3.52,6.64,7.87,6.64a9,9,0,0,0,4-.92c.92,3.19,3.51,5.47,6.55,5.47C53.91,44.62,57,41,57,36.56c0-.29,0-.57,0-.85a5.14,5.14,0,0,0,.88.07C61.43,35.78,64.33,32.56,64.33,28.59Z"/><polygon class="cls-1" points="17.15 60.34 12.22 60 27.63 31.11 30.35 31.98 17.15 60.34"/><path class="cls-2" d="M45.59,71.45v.18a11.75,11.75,0,0,1-6.38,10.28,11.72,11.72,0,0,1-11.32,8.55h-.21a11.07,11.07,0,0,1-3.47-.59,6.42,6.42,0,0,1-.66-.24c-.15.28-.32.56-.49.83A13.52,13.52,0,0,1,9.67,96.65l-.43-.07A13.33,13.33,0,0,1,4.89,95,13.7,13.7,0,0,1,0,90.32l0-.06V46.2H0c.37-.1.74-.19,1.12-.26a14.18,14.18,0,0,1,2.36-.21,13.17,13.17,0,0,1,8.85,3.4,13.56,13.56,0,0,1,1.47,1.56,11.68,11.68,0,0,1,4.28-1.82h.05c.37-.07.75-.13,1.13-.17a11.64,11.64,0,0,1,3.22.12A11.73,11.73,0,0,1,29.65,53c.24.3.47.62.69.95a12,12,0,0,1,1.19,2.38h0c.08.22.16.44.23.67a12,12,0,0,1,.47,2.76,11.94,11.94,0,0,1,1.6-.11A11.71,11.71,0,0,1,40,61.45a11.47,11.47,0,0,1,3,2.66h0a13.05,13.05,0,0,1,1.16,1.76c.12.23.24.46.35.7h0a12.44,12.44,0,0,1,.71,2.08A11.71,11.71,0,0,1,45.59,71.45Z"/><path class="cls-2" d="M66.67,28.59c0-4-2.9-7.18-6.47-7.18A6.08,6.08,0,0,0,56,23.17a6.85,6.85,0,0,0-6.63-5,6.7,6.7,0,0,0-6.57,8.62c-.28,0-.57,0-.86,0-4.34,0-7.86,3-7.86,6.63s3.52,6.64,7.86,6.64a9,9,0,0,0,4-.92c.92,3.19,3.51,5.47,6.55,5.47,3.82,0,6.91-3.61,6.91-8.06,0-.29,0-.57,0-.85a5.26,5.26,0,0,0,.89.07C63.77,35.78,66.67,32.56,66.67,28.59Z"/><path class="cls-2" d="M57.21,94.65a.32.32,0,0,1-.14,0l.11-.13A.33.33,0,0,0,57.21,94.65Z"/><path class="cls-2" d="M57.21,94.65a.32.32,0,0,1-.14,0l.11-.13A.33.33,0,0,0,57.21,94.65Z"/><path class="cls-2" d="M73.5,77.64a14.12,14.12,0,0,0-24.64-5.91,14.62,14.62,0,0,0-2.66-.25,14.12,14.12,0,0,0-8.51,25.39A14.07,14.07,0,0,0,48.81,104a14.12,14.12,0,0,0,18.07,1.06A14.13,14.13,0,1,0,73.5,77.64Zm-16.43,17,.11-.13a.33.33,0,0,0,0,.15A.32.32,0,0,1,57.07,94.63Z"/><path class="cls-2" d="M57.21,94.65a.32.32,0,0,1-.14,0l.11-.13A.33.33,0,0,0,57.21,94.65Z"/><path class="cls-2" d="M80.22,80.36c-.52,2.51-3.38,4.24-3.41,4s-2.06-2.55-1.55-5.06,3.42-4,3.42-4S80.74,77.85,80.22,80.36Z"/><path class="cls-2" d="M9.67,96.64a6.3,6.3,0,0,1-3.41,4c0-.2-2.06-2.55-1.54-5.06s3.41-4,3.41-4S10.19,94.13,9.67,96.64Z"/><path class="cls-2" d="M44.89,13c-.52,2.52-3.39,4.24-3.42,4S39.41,14.52,39.93,12s3.41-4,3.41-4S45.4,10.51,44.89,13Z"/><path class="cls-2" d="M66.31,27.11a6.32,6.32,0,0,1,5,1.88c-.18.1-1.72,2.79-4.26,3.14s-5-1.88-5-1.88S63.77,27.46,66.31,27.11Z"/><path class="cls-3" d="M26.89,13.24c2.16,1.37,2.76,4.66,2.56,4.62s-3.11,1-5.27-.35-2.57-4.62-2.57-4.62S24.72,11.86,26.89,13.24Z"/><path class="cls-3" d="M28.74,25c-1.54,2.05-4.87,2.38-4.82,2.18s-.77-3.18.78-5.23,4.82-2.19,4.82-2.19S30.28,22.92,28.74,25Z"/><path class="cls-3" d="M56.46,51c-1.54,2-4.87,2.38-4.81,2.18s-.77-3.18.77-5.23,4.82-2.19,4.82-2.19S58,48.91,56.46,51Z"/><path class="cls-3" d="M54.44,35.67c-1.35-2-4.24-2.29-4.19-2.1s-.67,3.07.67,5,4.19,2.11,4.19,2.11S55.78,37.65,54.44,35.67Z"/><path class="cls-3" d="M57.4,84a6.3,6.3,0,0,1-2.92-4.41c.2,0,3-1.27,5.29-.06s2.92,4.41,2.92,4.41S59.67,85.2,57.4,84Z"/><path class="cls-3" d="M23.41,58.66c-2.26-1.21-3.12-4.44-2.91-4.42s3-1.26,5.29-.06S28.7,58.6,28.7,58.6,25.68,59.86,23.41,58.66Z"/><path class="cls-1" d="M4.48,67.44C3.65,69.87.59,71.22.58,71S.31,70.49,0,69.83a1,1,0,0,1,0-.1V65.12a.43.43,0,0,0,0-.07A7.77,7.77,0,0,1,3.6,62.23S5.32,65,4.48,67.44Z"/><path class="cls-1" d="M8,77.69a6.3,6.3,0,0,1-5.21-.92C3,76.64,4,73.71,6.39,72.89s5.21.93,5.21.93S10.43,76.88,8,77.69Z"/><path class="cls-1" d="M62,101.19c-1.91,1.71-5.24,1.39-5.15,1.21s-.13-3.27,1.78-5,5.15-1.21,5.15-1.21S64,99.48,62,101.19Z"/><path class="cls-1" d="M5,26.19A4.69,4.69,0,0,1,3.77,28,6.25,6.25,0,0,1,0,29.38H0V26.19H0V24.63a4.17,4.17,0,0,1,.36-.37c1.91-1.71,5.15-1.21,5.15-1.21A8.61,8.61,0,0,1,5,26.19Z"/><path class="cls-1" d="M56.18,31.1c-1.92,1.71-5.25,1.39-5.16,1.21s-.13-3.27,1.78-5S58,26.12,58,26.12,58.09,29.39,56.18,31.1Z"/><polygon class="cls-1" points="16.63 107.4 17.26 114.1 55.24 90.94 53.97 87.3 16.63 107.4"/><polygon class="cls-1" points="29.65 53.02 31.68 56.63 45.35 34.43 44.34 31.11 29.65 53.02"/><rect class="cls-4" y="26.19" width="0.04" height="139.7"/></g></g></svg>