<svg xmlns="http://www.w3.org/2000/svg" viewBox="0 0 170.34 229.11"><defs><style>.cls-1{fill:#a1fbf9;}.cls-2{fill:#5ce4d7;opacity:0.55;}.cls-3{fill:#f679c7;}</style></defs><g id="Capa_2" data-name="Capa 2"><g id="Capa_4" data-name="Capa 4"><path class="cls-1" d="M170.34,143.94A85.17,85.17,0,0,1,0,143.94C0,110.73,42.45,46.07,67.84,9.67a22.62,22.62,0,0,1,37.29.28C129.87,46.51,170.34,111.29,170.34,143.94Z"/><path class="cls-2" d="M162.31,180.1A85.19,85.19,0,0,1,0,143.94c0-9.2,3.26-20.83,8.52-33.59a61.81,61.81,0,0,0-1.94,14.26A87.75,87.75,0,0,0,162.31,180.1Z"/><path d="M100.68,161.78c-7.89,8.36-23.34,9.58-31,.4-2.48-3-6.71,1.3-4.24,4.24,9.72,11.63,29.53,10.17,39.51-.4,2.65-2.8-1.59-7.06-4.25-4.24Z"/><path d="M57.94,138.93c-5.56-8.73-17.5-9.77-22.81-.31-1.89,3.38,3.29,6.4,5.18,3,3-5.4,9.23-4.75,12.45.3,2.07,3.25,7.27.25,5.18-3Z"/><path d="M132.4,138.93c-5.56-8.73-17.51-9.77-22.82-.31-1.89,3.38,3.29,6.4,5.18,3,3-5.4,9.23-4.75,12.46.3,2.07,3.25,7.26.25,5.18-3Z"/><ellipse class="cls-3" cx="39.98" cy="156.53" rx="15.37" ry="4.85"/><ellipse class="cls-3" cx="129.81" cy="156.53" rx="15.37" ry="4.85"/></g></g></svg>