<svg width="100" height="70" viewBox="0 0 100 70" fill="none" xmlns="http://www.w3.org/2000/svg">
<path d="M15 30C20.4688 30 25 25.625 25 20C25 14.5312 20.4688 10 15 10C9.375 10 5 14.5312 5 20C5 25.625 9.375 30 15 30ZM85 30C90.4688 30 95 25.625 95 20C95 14.5312 90.4688 10 85 10C79.375 10 75 14.5312 75 20C75 25.625 79.375 30 85 30ZM90 35H80C77.1875 35 74.6875 36.25 72.8125 37.9688C79.2188 41.4062 83.5938 47.6562 84.6875 55H95C97.6562 55 100 52.8125 100 50V45C100 39.5312 95.4688 35 90 35ZM50 35C59.5312 35 67.5 27.1875 67.5 17.5C67.5 7.96875 59.5312 0 50 0C40.3125 0 32.5 7.96875 32.5 17.5C32.5 27.1875 40.3125 35 50 35ZM61.875 40H60.625C57.3438 41.5625 53.75 42.5 50 42.5C46.0938 42.5 42.5 41.5625 39.2188 40H37.9688C27.9688 40 20 48.125 20 58.125V62.5C20 66.7188 23.2812 70 27.5 70H72.5C76.5625 70 80 66.7188 80 62.5V58.125C80 48.125 71.875 40 61.875 40ZM27.0312 37.9688C25.1562 36.25 22.6562 35 20 35H10C4.375 35 0 39.5312 0 45V50C0 52.8125 2.1875 55 5 55H15.1562C16.25 47.6562 20.625 41.4062 27.0312 37.9688Z" fill="#F9F2F5"/>
</svg>
