<svg width="90" height="80" viewBox="0 0 90 80" fill="none" xmlns="http://www.w3.org/2000/svg">
<path d="M86.25 10H70V3.75C70 1.71875 68.2812 0 66.25 0H23.75C21.5625 0 20 1.71875 20 3.75V10H3.75C1.5625 10 0 11.7188 0 13.75V22.5C0 28.125 3.4375 33.9062 9.53125 38.2812C14.5312 41.875 20.4688 44.0625 26.7188 44.8438C31.7188 52.9688 37.5 56.25 37.5 56.25V67.5H30C24.375 67.5 20 70.7812 20 76.25V78.125C20 79.2188 20.7812 80 21.875 80H68.125C69.0625 80 70 79.2188 70 78.125V76.25C70 70.7812 65.4688 67.5 60 67.5H52.5V56.25C52.5 56.25 58.125 52.9688 63.125 44.8438C69.375 44.0625 75.3125 41.875 80.3125 38.2812C86.4062 33.9062 90 28.125 90 22.5V13.75C90 11.7188 88.2812 10 86.25 10ZM15.4688 30.1562C11.5625 27.5 10 24.375 10 22.5V20H20C20.1562 25.1562 20.9375 29.6875 22.0312 33.5938C19.5312 32.6562 17.3438 31.5625 15.4688 30.1562ZM80 22.5C80 25.1562 77.1875 28.2812 74.375 30.1562C72.5 31.5625 70.3125 32.6562 67.8125 33.5938C68.9062 29.6875 69.6875 25.1562 69.8438 20H80V22.5Z" fill="#F9F2F5"/>
</svg>
