<svg width="104" height="80" viewBox="0 0 104 80" fill="none" xmlns="http://www.w3.org/2000/svg">
<path d="M98.0625 18.5938L87.9062 2.34375C86.9688 0.9375 85.4062 0 83.6875 0H20.5625C18.8438 0 17.125 0.9375 16.1875 2.34375L6.1875 18.5938C0.875 27.0312 5.5625 38.5938 15.25 39.8438C16.0312 40 16.6562 40 17.4375 40C22.125 40 26.1875 37.9688 29 34.8438C31.8125 37.9688 35.875 40 40.5625 40C45.0938 40 49.1562 37.9688 51.9688 34.8438C54.7812 37.9688 59 40 63.5312 40C68.2188 40 72.2812 37.9688 75.0938 34.8438C77.9062 37.9688 81.9688 40 86.6562 40C87.4375 40 88.0625 40 88.8438 39.8438C98.5312 38.5938 103.219 27.0312 98.0625 18.5938ZM86.6562 45C85.0938 45 83.5312 44.8438 82.125 44.5312V60H22.125V44.5312C20.5625 44.8438 19 45 17.4375 45C16.5 45 15.5625 45 14.625 44.8438C13.6875 44.6875 12.9062 44.5312 12.125 44.375V75C12.125 77.8125 14.3125 80 17.125 80H87.125C89.7812 80 92.125 77.8125 92.125 75V44.375C91.1875 44.5312 90.4062 44.8438 89.4688 44.8438C88.5312 45 87.5938 45 86.6562 45Z" fill="#F9F2F5"/>
</svg>
